<svg width="50" height="47" fill="none" xmlns="http://www.w3.org/2000/svg"><ellipse cx="25" cy="23.22" rx="25" ry="23.108" fill="#fff"/><path d="M33.23 13.977H18.025c-1.717 0-3.025 1.208-3.025 2.795v14.051c0 1.586 1.308 2.795 3.025 2.795h15.203c1.717 0 3.024-1.209 3.024-2.795V16.772c0-1.587-1.307-2.795-3.024-2.795zM25.626 29.69c3.515 0 6.376-2.569 6.376-5.666 0-.529-.082-1.133-.245-1.586h1.798v8.007c0 .378-.327.756-.817.756H18.516c-.409 0-.817-.302-.817-.756v-8.083h1.88a5.346 5.346 0 00-.245 1.587c-.082 3.172 2.779 5.74 6.293 5.74zm0-2.267c-2.288 0-4.087-1.661-4.087-3.701s1.799-3.702 4.087-3.702c2.29 0 4.087 1.662 4.087 3.702 0 2.115-1.798 3.701-4.087 3.701zm7.847-8.083c0 .454-.408.831-.899.831h-2.289c-.49 0-.899-.377-.899-.83V17.3c0-.454.41-.831.9-.831h2.288c.49 0 .9.377.9.83v2.04z" fill="#8253D8"/></svg>