<svg width="29" height="27" viewBox="0 0 29 27" fill="none" xmlns="http://www.w3.org/2000/svg">
<g filter="url(#filter0_d_2_137)">
<path d="M6.54671 0.81311L15.6328 10.2768C15.8688 10.5223 16.2653 10.5223 16.5013 10.2768L18.3421 8.36047C18.6159 8.07727 18.5545 7.61471 18.21 7.42118C13.4569 4.73075 7.56624 1.3984 6.54671 0.81311ZM3.79492 1.44088C3.69108 1.6816 3.625 1.9412 3.625 2.23385V22.8841C3.625 23.1201 3.67692 23.3372 3.75716 23.5449L13.9855 12.8917C14.2121 12.6604 14.2121 12.2923 13.9855 12.0563L3.79492 1.44088ZM21.075 9.18648C20.9476 9.20536 20.8249 9.26672 20.7305 9.36585L18.1439 12.0563C17.9173 12.2876 17.9173 12.6557 18.1439 12.8917L20.7069 15.5586C20.8957 15.7568 21.2025 15.7993 21.4432 15.6624C23.2321 14.6476 24.4404 13.9679 24.4404 13.9679C25.0446 13.5997 25.3844 13.038 25.375 12.4244C25.3656 11.825 25.0163 11.268 24.4357 10.9423C24.3649 10.8999 23.1849 10.2343 21.4621 9.262C21.3441 9.1912 21.2072 9.1676 21.075 9.18648ZM16.0671 14.4871C15.9066 14.4871 15.7508 14.5485 15.6281 14.6759L6.61279 24.0594C8.16569 23.1767 13.6882 20.052 18.1864 17.5079C18.5309 17.3097 18.5923 16.8471 18.3185 16.5639L16.5013 14.6759C16.3833 14.5485 16.2275 14.4871 16.0671 14.4871Z" fill="white"/>
</g>
<defs>
<filter id="filter0_d_2_137" x="-0.375" y="0.81311" width="29.7502" height="31.2462" filterUnits="userSpaceOnUse" color-interpolation-filters="sRGB">
<feFlood flood-opacity="0" result="BackgroundImageFix"/>
<feColorMatrix in="SourceAlpha" type="matrix" values="0 0 0 0 0 0 0 0 0 0 0 0 0 0 0 0 0 0 127 0" result="hardAlpha"/>
<feOffset dy="4"/>
<feGaussianBlur stdDeviation="2"/>
<feComposite in2="hardAlpha" operator="out"/>
<feColorMatrix type="matrix" values="0 0 0 0 0 0 0 0 0 0 0 0 0 0 0 0 0 0 0.25 0"/>
<feBlend mode="normal" in2="BackgroundImageFix" result="effect1_dropShadow_2_137"/>
<feBlend mode="normal" in="SourceGraphic" in2="effect1_dropShadow_2_137" result="shape"/>
</filter>
</defs>
</svg>
