<svg width="29" height="27" fill="none" xmlns="http://www.w3.org/2000/svg"><g filter="url(#filter0_d_2_137)"><path d="M6.547.813l9.086 9.464a.604.604 0 00.868 0l1.841-1.917a.597.597 0 00-.132-.939C13.457 4.731 7.566 1.398 6.547.813zm-2.752.628c-.104.24-.17.5-.17.793v20.65c0 .236.052.453.132.66l10.228-10.652a.598.598 0 000-.836L3.796 1.441zm17.28 7.745a.598.598 0 00-.345.18l-2.586 2.69a.598.598 0 000 .836l2.563 2.667c.189.198.495.24.736.103 1.79-1.014 2.997-1.694 2.997-1.694.605-.368.944-.93.935-1.544-.01-.599-.359-1.156-.94-1.482-.07-.042-1.25-.708-2.973-1.68a.588.588 0 00-.387-.076zm-5.008 5.301a.601.601 0 00-.439.189l-9.015 9.383a11154.4 11154.4 0 0111.573-6.551.602.602 0 00.133-.944L16.5 14.676a.584.584 0 00-.434-.189z" fill="#fff"/></g><defs><filter id="filter0_d_2_137" x="-.375" y=".813" width="29.75" height="31.246" filterUnits="userSpaceOnUse" color-interpolation-filters="sRGB"><feFlood flood-opacity="0" result="BackgroundImageFix"/><feColorMatrix in="SourceAlpha" values="0 0 0 0 0 0 0 0 0 0 0 0 0 0 0 0 0 0 127 0" result="hardAlpha"/><feOffset dy="4"/><feGaussianBlur stdDeviation="2"/><feComposite in2="hardAlpha" operator="out"/><feColorMatrix values="0 0 0 0 0 0 0 0 0 0 0 0 0 0 0 0 0 0 0.25 0"/><feBlend in2="BackgroundImageFix" result="effect1_dropShadow_2_137"/><feBlend in="SourceGraphic" in2="effect1_dropShadow_2_137" result="shape"/></filter></defs></svg>