<svg width="50" height="47" fill="none" xmlns="http://www.w3.org/2000/svg"><ellipse cx="25" cy="23.22" rx="25" ry="23.108" fill="#fff"/><path d="M38.252 17.327c-.875.347-1.875.578-2.875.694 1-.578 1.875-1.502 2.25-2.542-1 .577-2 .924-3.25 1.155-.875-.924-2.25-1.502-3.625-1.502-2.75 0-5 2.08-5 4.622 0 .346 0 .693.125 1.04-4.125-.232-7.875-2.08-10.375-4.853-.375.693-.625 1.502-.625 2.31 0 1.618.875 3.005 2.25 3.813a4.584 4.584 0 01-2.25-.577c0 2.195 1.75 4.16 4 4.506-.375.115-.875.115-1.375.115-.375 0-.625 0-1-.115.625 1.848 2.5 3.235 4.75 3.235-1.75 1.27-3.875 1.964-6.25 1.964-.375 0-.75 0-1.25-.116 2.25 1.271 4.875 2.08 7.75 2.08 9.25 0 14.25-7.048 14.25-13.171v-.578c1-.347 1.875-1.155 2.5-2.08z" fill="#8253D8"/></svg>