<svg width="34" height="39" fill="none" xmlns="http://www.w3.org/2000/svg"><path d="M3.517 1.258l28.969 16.725c1.168.674 1.168 2.36 0 3.034L3.517 37.742c-1.168.675-2.628-.168-2.628-1.517V2.775c0-1.348 1.46-2.191 2.628-1.517z" fill="#fff"/><path d="M32.486 17.983L3.517 1.258a1.757 1.757 0 00-.537-.194l28.006 16.169c1.168.674 1.168 2.36 0 3.034L2.017 36.992a1.723 1.723 0 01-.808.226c.492.703 1.47 1.007 2.308.524l28.969-16.725c1.168-.674 1.168-2.36 0-3.034z" fill="#fff"/><path d="M3.517 1.258l28.969 16.725c1.168.674 1.168 2.36 0 3.034L3.517 37.742c-1.168.675-2.628-.168-2.628-1.517V2.775c0-1.348 1.46-2.191 2.628-1.517z" stroke="#fff" stroke-miterlimit="10"/></svg>